<svg id="Layer_1" data-name="Layer 1" xmlns="http://www.w3.org/2000/svg" viewBox="0 0 964.55 662.19"><defs><style>.cls-1{fill:#cd2c2c;}</style></defs><path class="cls-1" d="M203.55,33.14l-6,0-14.3.19a2.85,2.85,0,0,0-2.6,1.86l-9.42,26-.88,2.13L148,125.07l-11.32,31.12,5.83.51,12.45-34.44,20.68-56.94.8-2.17,8.81-24.1,10.19-.16,6,0,5.12,0c.71-1.92,1.5-3.82,2.3-5.72Zm-101.88,236,39.45-108.75c-1.94-.17-3.89-.34-5.8-.59l-38.8,107-17.07,47,5.83.51Zm329-234.27a8.42,8.42,0,0,1-.35,1.42l12.35-.09C438.65,35.72,434.71,35.27,430.67,34.87Zm.68-2.85c-.43.93-.76,1.82-1.2,2.75a1.13,1.13,0,0,1,.52.1C430.91,34,431.11,32.93,431.35,32ZM397.6,31,271.49,32.43l-58.44.66c-.44,1.94-1,3.84-1.45,5.67l217.88-2.41a12.28,12.28,0,0,1,.67-1.58C419.31,33.5,408.47,32.23,397.6,31ZM835.43,134l18.86-54.51c-1.92-.25-3.78-.39-5.72-.56l-25.79,74.48-23.13,67.07c1.91.25,3.77.39,5.61.61ZM871.54,29.56a2.69,2.69,0,0,0-.35-2.5,2.75,2.75,0,0,0-2.29-1.21l-423.5,4.7c16.89,1.68,33.89,3.31,50.94,5.05a.26.26,0,0,0,.19,0L865,31.51l-14.51,42c1.92.26,3.78.4,5.69.65ZM714,485.23l1.92-5.68,37-106.74L803.73,225.7c-2-.18-3.81-.32-5.75-.49l-51.1,147.68-37,106.74L708,485.3l-3.16,9.05-189.48,4.06c-.61,1.87-1.29,3.72-2,5.57l193.49-4a2.78,2.78,0,0,0,2.64-1.94ZM60.21,383.34l23.05-63.63c-1.91-.25-3.75-.48-5.69-.65L54.64,382.37,19.76,478.49c1.87.14,3.78.39,5.72.56Zm327.6,252.38,1.89-5.6L423,528.68c-1.91-.25-3.77-.39-5.69-.64l-33.6,102.05-1.83,5.71-3.06,9.27-218.46,1.74a1.21,1.21,0,0,0-.54,0l-99.05.72,47.68-136.72a2.7,2.7,0,0,0-.32-2.58,3.41,3.41,0,0,0-1.37-1,4.47,4.47,0,0,0-1-.2l-91.13,2,9.57-26.39c-1.94-.17-3.86-.42-5.69-.64l-10.55,29a2.84,2.84,0,0,0,.33,2.58,2.91,2.91,0,0,0,2.4,1.16l91.12-2L54.11,649.43a2.75,2.75,0,0,0,.32,2.58,3.64,3.64,0,0,0,1.38,1,1.68,1.68,0,0,0,.94.16l102.62-.76a1.58,1.58,0,0,0,.62,0l220.85-1.77a2.86,2.86,0,0,0,2.71-1.92ZM507.44,498.59l-58.19,1.21-5.88.11-14.44.32-.76.09a2.64,2.64,0,0,0-2.33,1.87l-6.18,18.7c1.91.25,3.86.42,5.69.64l5.19-15.78,10.95-.24,5.87-.11,58.11-1.25C506.15,502.31,506.75,500.43,507.44,498.59Z"/><path class="cls-1" d="M215,18.21l-10.07.11a2.87,2.87,0,0,0-2.69,1.84l-4.72,13-2.1,5.7-2.59,7.25-.8,2.17-25.4,70-14.26,39.33,5.83.52,15.18-41.83,23.94-66,.8-2.16,3.33-9.26,2.11-5.7,3.3-9.18,5.77-.06Zm-99,256,40.72-112.19c-1.94-.17-3.89-.34-5.8-.6L110.71,272.57,95.24,315.19c2,.09,3.83.23,5.75.48ZM861.46,106.47,870.24,81c-1.92-.25-3.78-.39-5.72-.56l-9.13,26.18L851,119.48a.94.94,0,0,1-.24.64q-15.71,51.39-33.23,102.28c1.24.1,2.48.19,3.7.37Zm-83.39,241,41.64-120.34c-1.25-.09-2.46-.27-3.7-.36l-.47,1.28q-19.53,56.55-41,112.38l0,.08-7.85,22.73-7.16,20.61c2,0,3.9.07,5.87.16Zm-13,37.54c-1.92-.25-3.8-.59-5.69-.92L726.54,479.3l-10.67.25-6,.08-189.57,4c-.6,1.88-1.23,3.84-1.91,5.68l189.56-4,6-.07,14.63-.35a2.88,2.88,0,0,0,2.63-1.94ZM893.25,14.5a2.58,2.58,0,0,0-.36-2.5,2.78,2.78,0,0,0-2.28-1.21L304.19,17.24c18.09,1.66,36.28,3.28,54.49,5.08.11-.05.19,0,.38,0l527.55-5.85L866.22,75.3c1.95.17,3.86.42,5.78.67Zm-609.39,3a1.33,1.33,0,0,0-.39,0l-66.75.69c-.41,1.86-.85,3.79-1.34,5.62l109.84-1.29C311.36,20.8,297.55,19.16,283.86,17.48ZM75.62,385.57,99,321.4c-1.94-.17-3.86-.42-5.8-.59l-23.2,64L35.41,480.07c1.87.15,3.78.4,5.72.57Zm363.57,144.9c-1.91-.25-3.74-.47-5.69-.64L400.5,630l-10.8.11-6,0-201.64,1.67c-.17-.06-.44-.07-.6-.13l-99,.82,47.68-136.71a.51.51,0,0,0,0-.35c-8.12-1-16.23-2-24.27-2.95a.26.26,0,0,1-.19,0L36.29,494l3.39-9.42c-1.91-.25-3.83-.5-5.69-.64l-4.34,12A2.77,2.77,0,0,0,30,498.5a3,3,0,0,0,2.37,1.24l91.13-2L75.82,634.37a2.7,2.7,0,0,0,.35,2.51,2.56,2.56,0,0,0,1.27,1,4.29,4.29,0,0,0,1,.2l102.62-.76c.19,0,.35,0,.54,0l200.24-1.54,5.95-.08,14.73-.12a2.78,2.78,0,0,0,2.64-2Zm73.59-46.6-62.14,1.3-.76.09a2.52,2.52,0,0,0-2.33,1.87l-4.18,12.78-1.88,5.6-5.62,17.17c1.92.25,3.75.47,5.58.69l5.91-18,1.89-5.6,3-9.11,58.46-1.2Z"/><path class="cls-1" d="M116,323.33c-5,21.5-10.87,42.78-17.37,63.82,2.62.05,5.36.06,8,0q59.27-.82,101.58-25.59a137.81,137.81,0,0,0,31.89-25.34C198.64,332.05,157.17,327.77,116,323.33ZM48.87,303.17l-4.71,7.56c8.86.72,17.77,1.55,26.7,2.3A137.19,137.19,0,0,1,48.87,303.17Zm66.65,20.06c-5.53-.58-11-1.24-16.56-1.83-1.94-.17-3.86-.42-5.8-.59-3.32-.4-6.63-.81-9.9-1.1-1.91-.25-3.75-.48-5.69-.65-12-1.33-24.06-2.77-35.95-4.16l-32,51.49q16.21,9.83,42.71,15.5c.75.19,1.53.3,2.29.48,1.88.33,3.73.75,5.57,1,3.23.64,6.43,1.1,9.75,1.5,1.8.3,3.72.55,5.66.73,5,.56,10.12,1,15.23,1.24Q102,354.69,115.52,323.23ZM279.94,114a194.67,194.67,0,0,0-48.83-5.36,241.77,241.77,0,0,0-42.8,4.26q-8.62,23.36-18.54,46.23,58.95,5.22,118.71,10.75l0-.08L314,129.57C306.45,123,295.11,117.86,279.94,114Zm0,0a194.67,194.67,0,0,0-48.83-5.36,241.77,241.77,0,0,0-42.8,4.26q-8.62,23.36-18.54,46.23,58.95,5.22,118.71,10.75l0-.08L314,129.57C306.45,123,295.11,117.86,279.94,114Zm-99.15.49c-2.56.52-5,1.17-7.42,1.82s-4.56,1.24-6.75,2q-3.65,1-7.14,2.29c-1.56.51-3,1.06-4.55,1.69a75,75,0,0,0-7,2.81,157.21,157.21,0,0,0-44.33,27.4l-.84.79c11.23,1,22.54,1.94,33.85,2.93l5.83.51c3.27.29,6.61.62,9.88.91l5.83.52c3.73.28,7.43.64,11.15.92C172.69,144.05,176.56,129.16,180.79,114.48ZM270.3,256.1a45.19,45.19,0,0,0-17.42-23,109.94,109.94,0,0,0-28.82-13.84c-10.66-3.48-20.85-6.52-30.43-9.23s-17.09-5.59-22.73-8.59-7.54-7-5.74-11.87c1.9-5.14,6.64-9.32,14.29-12.51s17.56-4.82,29.94-5a144.39,144.39,0,0,1,32.46,3.23,208.83,208.83,0,0,1,36,11.31l7-11q-64.55-6.74-128.14-13.59c-1.94-.17-3.89-.34-5.8-.6-3.27-.29-6.5-.66-9.82-1.07-1.94-.17-3.89-.34-5.8-.59-11.85-1.28-23.61-2.52-35.37-3.76a117.84,117.84,0,0,0-29.51,44.82C65,215.55,63.92,227.64,67.1,237.3a42.64,42.64,0,0,0,17.64,22.85,117.42,117.42,0,0,0,11.78,6.63c1.71.81,3.42,1.62,5.15,2.36a93.71,93.71,0,0,0,9,3.43c1,.38,2.12.69,3.16,1.07a17.09,17.09,0,0,0,2.15.61c10,3.14,19.57,5.78,28.76,8.07,9.77,2.43,17.54,5.12,23.24,7.95s7.49,6.88,5.56,12.09c-2.07,5.62-6.77,10.18-14,13.63a54.4,54.4,0,0,1-12.47,3.88q49.4,4.42,99.05,9.41a130.46,130.46,0,0,0,21-37.39Q275.21,270.23,270.3,256.1ZM279.94,114a194.67,194.67,0,0,0-48.83-5.36,241.77,241.77,0,0,0-42.8,4.26q-8.62,23.36-18.54,46.23,58.95,5.22,118.71,10.75l0-.08L314,129.57C306.45,123,295.11,117.86,279.94,114Zm0,0a194.67,194.67,0,0,0-48.83-5.36,241.77,241.77,0,0,0-42.8,4.26q-8.62,23.36-18.54,46.23,58.95,5.22,118.71,10.75l0-.08L314,129.57C306.45,123,295.11,117.86,279.94,114Z"/><path class="cls-1" d="M279.33,340.06,264.94,379l48.1-.57q6.56-17,13.86-33.82C311,343.11,295.28,341.58,279.33,340.06Zm48.2,4.58c-2.72,11.31-5.68,22.53-8.8,33.7l48.66-.63,10.53-28.49C361.13,347.76,344.37,346.22,327.53,344.64ZM400.7,112.27l-37.4.51-22.86,61.87c13.92,1.32,27.93,2.66,41.94,4Q390.15,145,400.7,112.27Zm8,0Q397.39,145.93,383,178.7c18.62,1.68,37.3,3.48,56,5.27l26.78-72.47Zm235.53-3-87.88,1.09-72,78.11q48.09,4.63,96,9.48l0-.08,51.06-52.55Q637.36,127.19,644.27,109.23Zm11.07-.11h-3.73c-.44,1.66-1,3.3-1.54,4.9-.82,2.71-1.72,5.39-2.62,8.07-1.22,3.56-2.44,7.12-3.75,10.65L655,121.13,666.8,109ZM400.7,112.27l-37.4.51-22.86,61.87c13.92,1.32,27.93,2.66,41.94,4Q390.15,145,400.7,112.27Zm8,0Q397.39,145.93,383,178.7c18.62,1.68,37.3,3.48,56,5.27l26.78-72.47Zm235.53-3-87.88,1.09-72,78.11q48.09,4.63,96,9.48l0-.08,51.06-52.55Q637.36,127.19,644.27,109.23Zm-243.57,3-37.4.51-22.86,61.87c13.92,1.32,27.93,2.66,41.94,4Q390.15,145,400.7,112.27Zm8,0Q397.39,145.93,383,178.7c18.62,1.68,37.3,3.48,56,5.27l26.78-72.47Zm235.53-3-87.88,1.09-72,78.11q48.09,4.63,96,9.48l0-.08,51.06-52.55Q637.36,127.19,644.27,109.23ZM537.59,241.93,574,204.47q-47.85-4.54-95.72-9.28L458,217.09l-31.44.43L436.36,191q-49.22-4.91-98.32-9.88L282,332.92q49.19,5,98.12,10.44l25.21-68.22,30.06-.39,20.93,77.15c34.31,3.92,68.45,8.05,102.31,12.17-1.12,3.78-2.21,7.48-3.42,11.23l24.3-.33Zm106.68-132.7-87.88,1.09-72,78.11q48.09,4.63,96,9.48l0-.08,51.06-52.55Q637.36,127.19,644.27,109.23Zm-235.53,3Q397.39,145.93,383,178.7c18.62,1.68,37.3,3.48,56,5.27l26.78-72.47Zm-8,0-37.4.51-22.86,61.87c13.92,1.32,27.93,2.66,41.94,4Q390.15,145,400.7,112.27Zm243.57-3-87.88,1.09-72,78.11q48.09,4.63,96,9.48l0-.08,51.06-52.55Q637.36,127.19,644.27,109.23Zm-243.57,3-37.4.51-22.86,61.87c13.92,1.32,27.93,2.66,41.94,4Q390.15,145,400.7,112.27Zm8,0Q397.39,145.93,383,178.7c18.62,1.68,37.3,3.48,56,5.27l26.78-72.47Zm-8,0-37.4.51-22.86,61.87c13.92,1.32,27.93,2.66,41.94,4Q390.15,145,400.7,112.27Zm8,0Q397.39,145.93,383,178.7c18.62,1.68,37.3,3.48,56,5.27l26.78-72.47Zm48.65,243.82,5.49,20.45,91.21-1.23c1.48-3.74,3-7.46,4.5-11.2Q508.82,360.32,457.39,356.05Z"/><path class="cls-1" d="M850.89,110.13,835.43,134l-12.65,19.41L780.6,218.43c6.39.72,12.73,1.33,19,2.1l0-.08c1.91.25,3.77.39,5.61.61,1.59.13,3.07.32,4.64.53Q829.36,165.57,850.89,110.13Zm-31.18,117c-1.25-.09-2.46-.27-3.7-.36l-.47,1.28q-19.53,56.55-41,112.38l0,.08c-3.22,8.48-6.55,17-9.94,25.42l2.09-2.69,11.39-15.77,84.31-116.61Zm41.75-120.66-6.07.13h-.46c-1.3,4.26-2.63,8.6-3.93,12.87a.94.94,0,0,1-.24.64q-15.71,51.39-33.23,102.28c1.24.1,2.48.19,3.7.37q21.85,2.32,43.62,4.62L953.1,105.3ZM808.32,226.11c-1.52-.1-3.08-.31-4.59-.41-2-.18-3.81-.32-5.75-.49-6.89-.63-13.69-1.22-20.57-1.85l-32.35,49.8,4.55-52.32c-32.31-2.91-64.86-5.9-97.46-9l-5.06,162.31,99.79-1.25,6-.08,7-.08,1.84-2.51Q783.39,297.67,808.32,226.11ZM759.55,107.76,666.8,109l-11.46.14-.33,12-2.68,84c32.71,3.33,65.38,6.73,97.81,10Z"/><path class="cls-1" d="M237.49,509.58a18,18,0,0,0-.62-1.78c-3.4-.43-6.71-.83-10.06-1.16a7.75,7.75,0,0,1,3.44,5c1.61,5.52.57,13.53-3.2,23.72-4,10.76-9.09,19.17-15.21,25.12s-11.94,8.63-18.36,8.72c-5.61.12-8.73-2-10.23-6.88-1.77-5.58-.73-13.58,3-23.78,3.88-10.51,9-18.93,15.12-24.88,4.8-4.6,9.52-7.24,14.64-8.27-4.8-.59-9.6-1.17-14.43-1.68a42.83,42.83,0,0,0-5.42,4.56c-7,6.74-12.62,16.14-16.89,27.69-4.42,12-5.51,21.32-3.28,28.62,1.72,5.47,5,9.15,9.83,10.93a21,21,0,0,0,7.67,1.19c8.35-.11,16.26-3.75,23.52-10.83,7-6.73,12.62-16.13,17-27.93S239.56,516.82,237.49,509.58ZM220,497.46a27.25,27.25,0,0,0-6.83,1l17.65,1.86C228.26,498.51,224.75,497.4,220,497.46Zm17.5,12.12a18,18,0,0,0-.62-1.78c-3.4-.43-6.71-.83-10.06-1.16a7.75,7.75,0,0,1,3.44,5c1.61,5.52.57,13.53-3.2,23.72-4,10.76-9.09,19.17-15.21,25.12s-11.94,8.63-18.36,8.72c-5.61.12-8.73-2-10.23-6.88-1.77-5.58-.73-13.58,3-23.78,3.88-10.51,9-18.93,15.12-24.88,4.8-4.6,9.52-7.24,14.64-8.27-4.8-.59-9.6-1.17-14.43-1.68a42.83,42.83,0,0,0-5.42,4.56c-7,6.74-12.62,16.14-16.89,27.69-4.42,12-5.51,21.32-3.28,28.62,1.72,5.47,5,9.15,9.83,10.93a21,21,0,0,0,7.67,1.19c8.35-.11,16.26-3.75,23.52-10.83,7-6.73,12.62-16.13,17-27.93S239.56,516.82,237.49,509.58ZM220,497.46a27.25,27.25,0,0,0-6.83,1l17.65,1.86C228.26,498.51,224.75,497.4,220,497.46Zm17.5,12.12a18,18,0,0,0-.62-1.78c-3.4-.43-6.71-.83-10.06-1.16a7.75,7.75,0,0,1,3.44,5c1.61,5.52.57,13.53-3.2,23.72-4,10.76-9.09,19.17-15.21,25.12s-11.94,8.63-18.36,8.72c-5.61.12-8.73-2-10.23-6.88-1.77-5.58-.73-13.58,3-23.78,3.88-10.51,9-18.93,15.12-24.88,4.8-4.6,9.52-7.24,14.64-8.27-4.8-.59-9.6-1.17-14.43-1.68a42.83,42.83,0,0,0-5.42,4.56c-7,6.74-12.62,16.14-16.89,27.69-4.42,12-5.51,21.32-3.28,28.62,1.72,5.47,5,9.15,9.83,10.93a21,21,0,0,0,7.67,1.19c8.35-.11,16.26-3.75,23.52-10.83,7-6.73,12.62-16.13,17-27.93S239.56,516.82,237.49,509.58ZM220,497.46a27.25,27.25,0,0,0-6.83,1l17.65,1.86C228.26,498.51,224.75,497.4,220,497.46Zm17.5,12.12a18,18,0,0,0-.62-1.78c-3.4-.43-6.71-.83-10.06-1.16a7.75,7.75,0,0,1,3.44,5c1.61,5.52.57,13.53-3.2,23.72-4,10.76-9.09,19.17-15.21,25.12s-11.94,8.63-18.36,8.72c-5.61.12-8.73-2-10.23-6.88-1.77-5.58-.73-13.58,3-23.78,3.88-10.51,9-18.93,15.12-24.88,4.8-4.6,9.52-7.24,14.64-8.27-4.8-.59-9.6-1.17-14.43-1.68a42.83,42.83,0,0,0-5.42,4.56c-7,6.74-12.62,16.14-16.89,27.69-4.42,12-5.51,21.32-3.28,28.62,1.72,5.47,5,9.15,9.83,10.93a21,21,0,0,0,7.67,1.19c8.35-.11,16.26-3.75,23.52-10.83,7-6.73,12.62-16.13,17-27.93S239.56,516.82,237.49,509.58ZM220,497.46a27.25,27.25,0,0,0-6.83,1l17.65,1.86C228.26,498.51,224.75,497.4,220,497.46Zm17.5,12.12a18,18,0,0,0-.62-1.78c-3.4-.43-6.71-.83-10.06-1.16a7.75,7.75,0,0,1,3.44,5c1.61,5.52.57,13.53-3.2,23.72-4,10.76-9.09,19.17-15.21,25.12s-11.94,8.63-18.36,8.72c-5.61.12-8.73-2-10.23-6.88-1.77-5.58-.73-13.58,3-23.78,3.88-10.51,9-18.93,15.12-24.88,4.8-4.6,9.52-7.24,14.64-8.27-4.8-.59-9.6-1.17-14.43-1.68a42.83,42.83,0,0,0-5.42,4.56c-7,6.74-12.62,16.14-16.89,27.69-4.42,12-5.51,21.32-3.28,28.62,1.72,5.47,5,9.15,9.83,10.93a21,21,0,0,0,7.67,1.19c8.35-.11,16.26-3.75,23.52-10.83,7-6.73,12.62-16.13,17-27.93S239.56,516.82,237.49,509.58ZM220,497.46a27.25,27.25,0,0,0-6.83,1l17.65,1.86C228.26,498.51,224.75,497.4,220,497.46Zm17.5,12.12a18,18,0,0,0-.62-1.78c-3.4-.43-6.71-.83-10.06-1.16a7.75,7.75,0,0,1,3.44,5c1.61,5.52.57,13.53-3.2,23.72-4,10.76-9.09,19.17-15.21,25.12s-11.94,8.63-18.36,8.72c-5.61.12-8.73-2-10.23-6.88-1.77-5.58-.73-13.58,3-23.78,3.88-10.51,9-18.93,15.12-24.88,4.8-4.6,9.52-7.24,14.64-8.27-4.8-.59-9.6-1.17-14.43-1.68a42.83,42.83,0,0,0-5.42,4.56c-7,6.74-12.62,16.14-16.89,27.69-4.42,12-5.51,21.32-3.28,28.62,1.72,5.47,5,9.15,9.83,10.93a21,21,0,0,0,7.67,1.19c8.35-.11,16.26-3.75,23.52-10.83,7-6.73,12.62-16.13,17-27.93S239.56,516.82,237.49,509.58ZM220,497.46a27.25,27.25,0,0,0-6.83,1l17.65,1.86C228.26,498.51,224.75,497.4,220,497.46Zm17.5,12.12a18,18,0,0,0-.62-1.78c-3.4-.43-6.71-.83-10.06-1.16a7.75,7.75,0,0,1,3.44,5c1.61,5.52.57,13.53-3.2,23.72-4,10.76-9.09,19.17-15.21,25.12s-11.94,8.63-18.36,8.72c-5.61.12-8.73-2-10.23-6.88-1.77-5.58-.73-13.58,3-23.78,3.88-10.51,9-18.93,15.12-24.88,4.8-4.6,9.52-7.24,14.64-8.27-4.8-.59-9.6-1.17-14.43-1.68a42.83,42.83,0,0,0-5.42,4.56c-7,6.74-12.62,16.14-16.89,27.69-4.42,12-5.51,21.32-3.28,28.62,1.72,5.47,5,9.15,9.83,10.93a21,21,0,0,0,7.67,1.19c8.35-.11,16.26-3.75,23.52-10.83,7-6.73,12.62-16.13,17-27.93S239.56,516.82,237.49,509.58ZM220,497.46a27.25,27.25,0,0,0-6.83,1l17.65,1.86C228.26,498.51,224.75,497.4,220,497.46Zm17.5,12.12a18,18,0,0,0-.62-1.78c-3.4-.43-6.71-.83-10.06-1.16a7.75,7.75,0,0,1,3.44,5c1.61,5.52.57,13.53-3.2,23.72-4,10.76-9.09,19.17-15.21,25.12s-11.94,8.63-18.36,8.72c-5.61.12-8.73-2-10.23-6.88-1.77-5.58-.73-13.58,3-23.78,3.88-10.51,9-18.93,15.12-24.88,4.8-4.6,9.52-7.24,14.64-8.27-4.8-.59-9.6-1.17-14.43-1.68a42.83,42.83,0,0,0-5.42,4.56c-7,6.74-12.62,16.14-16.89,27.69-4.42,12-5.51,21.32-3.28,28.62,1.72,5.47,5,9.15,9.83,10.93a21,21,0,0,0,7.67,1.19c8.35-.11,16.26-3.75,23.52-10.83,7-6.73,12.62-16.13,17-27.93S239.56,516.82,237.49,509.58ZM220,497.46a27.25,27.25,0,0,0-6.83,1l17.65,1.86C228.26,498.51,224.75,497.4,220,497.46Zm17.5,12.12a18,18,0,0,0-.62-1.78c-3.4-.43-6.71-.83-10.06-1.16a7.75,7.75,0,0,1,3.44,5c1.61,5.52.57,13.53-3.2,23.72-4,10.76-9.09,19.17-15.21,25.12s-11.94,8.63-18.36,8.72c-5.61.12-8.73-2-10.23-6.88-1.77-5.58-.73-13.58,3-23.78,3.88-10.51,9-18.93,15.12-24.88,4.8-4.6,9.52-7.24,14.64-8.27-4.8-.59-9.6-1.17-14.43-1.68a42.83,42.83,0,0,0-5.42,4.56c-7,6.74-12.62,16.14-16.89,27.69-4.42,12-5.51,21.32-3.28,28.62,1.72,5.47,5,9.15,9.83,10.93a21,21,0,0,0,7.67,1.19c8.35-.11,16.26-3.75,23.52-10.83,7-6.73,12.62-16.13,17-27.93S239.56,516.82,237.49,509.58ZM220,497.46a27.25,27.25,0,0,0-6.83,1l17.65,1.86C228.26,498.51,224.75,497.4,220,497.46Zm17.5,12.12a18,18,0,0,0-.62-1.78c-3.4-.43-6.71-.83-10.06-1.16a7.75,7.75,0,0,1,3.44,5c1.61,5.52.57,13.53-3.2,23.72-4,10.76-9.09,19.17-15.21,25.12s-11.94,8.63-18.36,8.72c-5.61.12-8.73-2-10.23-6.88-1.77-5.58-.73-13.58,3-23.78,3.88-10.51,9-18.93,15.12-24.88,4.8-4.6,9.52-7.24,14.64-8.27-4.8-.59-9.6-1.17-14.43-1.68a42.83,42.83,0,0,0-5.42,4.56c-7,6.74-12.62,16.14-16.89,27.69-4.42,12-5.51,21.32-3.28,28.62,1.72,5.47,5,9.15,9.83,10.93a21,21,0,0,0,7.67,1.19c8.35-.11,16.26-3.75,23.52-10.83,7-6.73,12.62-16.13,17-27.93S239.56,516.82,237.49,509.58ZM220,497.46a27.25,27.25,0,0,0-6.83,1l17.65,1.86C228.26,498.51,224.75,497.4,220,497.46Zm17.5,12.12a18,18,0,0,0-.62-1.78c-3.4-.43-6.71-.83-10.06-1.16a7.75,7.75,0,0,1,3.44,5c1.61,5.52.57,13.53-3.2,23.72-4,10.76-9.09,19.17-15.21,25.12s-11.94,8.63-18.36,8.72c-5.61.12-8.73-2-10.23-6.88-1.77-5.58-.73-13.58,3-23.78,3.88-10.51,9-18.93,15.12-24.88,4.8-4.6,9.52-7.24,14.64-8.27-4.8-.59-9.6-1.17-14.43-1.68a42.83,42.83,0,0,0-5.42,4.56c-7,6.74-12.62,16.14-16.89,27.69-4.42,12-5.51,21.32-3.28,28.62,1.72,5.47,5,9.15,9.83,10.93a21,21,0,0,0,7.67,1.19c8.35-.11,16.26-3.75,23.52-10.83,7-6.73,12.62-16.13,17-27.93S239.56,516.82,237.49,509.58ZM220,497.46a27.25,27.25,0,0,0-6.83,1l17.65,1.86C228.26,498.51,224.75,497.4,220,497.46Zm17.5,12.12a18,18,0,0,0-.62-1.78c-3.4-.43-6.71-.83-10.06-1.16a7.75,7.75,0,0,1,3.44,5c1.61,5.52.57,13.53-3.2,23.72-4,10.76-9.09,19.17-15.21,25.12s-11.94,8.63-18.36,8.72c-5.61.12-8.73-2-10.23-6.88-1.77-5.58-.73-13.58,3-23.78,3.88-10.51,9-18.93,15.12-24.88,4.8-4.6,9.52-7.24,14.64-8.27-4.8-.59-9.6-1.17-14.43-1.68a42.83,42.83,0,0,0-5.42,4.56c-7,6.74-12.62,16.14-16.89,27.69-4.42,12-5.51,21.32-3.28,28.62,1.72,5.47,5,9.15,9.83,10.93a21,21,0,0,0,7.67,1.19c8.35-.11,16.26-3.75,23.52-10.83,7-6.73,12.62-16.13,17-27.93S239.56,516.82,237.49,509.58ZM220,497.46a27.25,27.25,0,0,0-6.83,1l17.65,1.86C228.26,498.51,224.75,497.4,220,497.46Zm17.5,12.12a18,18,0,0,0-.62-1.78c-3.4-.43-6.71-.83-10.06-1.16a7.75,7.75,0,0,1,3.44,5c1.61,5.52.57,13.53-3.2,23.72-4,10.76-9.09,19.17-15.21,25.12s-11.94,8.63-18.36,8.72c-5.61.12-8.73-2-10.23-6.88-1.77-5.58-.73-13.58,3-23.78,3.88-10.51,9-18.93,15.12-24.88,4.8-4.6,9.52-7.24,14.64-8.27-4.8-.59-9.6-1.17-14.43-1.68a42.83,42.83,0,0,0-5.42,4.56c-7,6.74-12.62,16.14-16.89,27.69-4.42,12-5.51,21.32-3.28,28.62,1.72,5.47,5,9.15,9.83,10.93a21,21,0,0,0,7.67,1.19c8.35-.11,16.26-3.75,23.52-10.83,7-6.73,12.62-16.13,17-27.93S239.56,516.82,237.49,509.58ZM220,497.46a27.25,27.25,0,0,0-6.83,1l17.65,1.86C228.26,498.51,224.75,497.4,220,497.46Zm17.5,12.12a18,18,0,0,0-.62-1.78c-3.4-.43-6.71-.83-10.06-1.16a7.75,7.75,0,0,1,3.44,5c1.61,5.52.57,13.53-3.2,23.72-4,10.76-9.09,19.17-15.21,25.12s-11.94,8.63-18.36,8.72c-5.61.12-8.73-2-10.23-6.88-1.77-5.58-.73-13.58,3-23.78,3.88-10.51,9-18.93,15.12-24.88,4.8-4.6,9.52-7.24,14.64-8.27-4.8-.59-9.6-1.17-14.43-1.68a42.83,42.83,0,0,0-5.42,4.56c-7,6.74-12.62,16.14-16.89,27.69-4.42,12-5.51,21.32-3.28,28.62,1.72,5.47,5,9.15,9.83,10.93a21,21,0,0,0,7.67,1.19c8.35-.11,16.26-3.75,23.52-10.83,7-6.73,12.62-16.13,17-27.93S239.56,516.82,237.49,509.58ZM220,497.46a27.25,27.25,0,0,0-6.83,1l17.65,1.86C228.26,498.51,224.75,497.4,220,497.46Zm17.5,12.12a18,18,0,0,0-.62-1.78c-3.4-.43-6.71-.83-10.06-1.16a7.75,7.75,0,0,1,3.44,5c1.61,5.52.57,13.53-3.2,23.72-4,10.76-9.09,19.17-15.21,25.12s-11.94,8.63-18.36,8.72c-5.61.12-8.73-2-10.23-6.88-1.77-5.58-.73-13.58,3-23.78,3.88-10.51,9-18.93,15.12-24.88,4.8-4.6,9.52-7.24,14.64-8.27-4.8-.59-9.6-1.17-14.43-1.68a42.83,42.83,0,0,0-5.42,4.56c-7,6.74-12.62,16.14-16.89,27.69-4.42,12-5.51,21.32-3.28,28.62,1.72,5.47,5,9.15,9.83,10.93a21,21,0,0,0,7.67,1.19c8.35-.11,16.26-3.75,23.52-10.83,7-6.73,12.62-16.13,17-27.93S239.56,516.82,237.49,509.58ZM220,497.46a27.25,27.25,0,0,0-6.83,1l17.65,1.86C228.26,498.51,224.75,497.4,220,497.46Zm17.5,12.12a18,18,0,0,0-.62-1.78c-3.4-.43-6.71-.83-10.06-1.16a7.75,7.75,0,0,1,3.44,5c1.61,5.52.57,13.53-3.2,23.72-4,10.76-9.09,19.17-15.21,25.12s-11.94,8.63-18.36,8.72c-5.61.12-8.73-2-10.23-6.88-1.77-5.58-.73-13.58,3-23.78,3.88-10.51,9-18.93,15.12-24.88,4.8-4.6,9.52-7.24,14.64-8.27-4.8-.59-9.6-1.17-14.43-1.68a42.83,42.83,0,0,0-5.42,4.56c-7,6.74-12.62,16.14-16.89,27.69-4.42,12-5.51,21.32-3.28,28.62,1.72,5.47,5,9.15,9.83,10.93a21,21,0,0,0,7.67,1.19c8.35-.11,16.26-3.75,23.52-10.83,7-6.73,12.62-16.13,17-27.93S239.56,516.82,237.49,509.58ZM220,497.46a27.25,27.25,0,0,0-6.83,1l17.65,1.86C228.26,498.51,224.75,497.4,220,497.46Zm17.5,12.12a18,18,0,0,0-.62-1.78c-3.4-.43-6.71-.83-10.06-1.16a7.75,7.75,0,0,1,3.44,5c1.61,5.52.57,13.53-3.2,23.72-4,10.76-9.09,19.17-15.21,25.12s-11.94,8.63-18.36,8.72c-5.61.12-8.73-2-10.23-6.88-1.77-5.58-.73-13.58,3-23.78,3.88-10.51,9-18.93,15.12-24.88,4.8-4.6,9.52-7.24,14.64-8.27-4.8-.59-9.6-1.17-14.43-1.68a42.83,42.83,0,0,0-5.42,4.56c-7,6.74-12.62,16.14-16.89,27.69-4.42,12-5.51,21.32-3.28,28.62,1.72,5.47,5,9.15,9.83,10.93a21,21,0,0,0,7.67,1.19c8.35-.11,16.26-3.75,23.52-10.83,7-6.73,12.62-16.13,17-27.93S239.56,516.82,237.49,509.58ZM220,497.46a27.25,27.25,0,0,0-6.83,1l17.65,1.86C228.26,498.51,224.75,497.4,220,497.46Zm17.5,12.12a18,18,0,0,0-.62-1.78c-3.4-.43-6.71-.83-10.06-1.16a7.75,7.75,0,0,1,3.44,5c1.61,5.52.57,13.53-3.2,23.72-4,10.76-9.09,19.17-15.21,25.12s-11.94,8.63-18.36,8.72c-5.61.12-8.73-2-10.23-6.88-1.77-5.58-.73-13.58,3-23.78,3.88-10.51,9-18.93,15.12-24.88,4.8-4.6,9.52-7.24,14.64-8.27-4.8-.59-9.6-1.17-14.43-1.68a42.83,42.83,0,0,0-5.42,4.56c-7,6.74-12.62,16.14-16.89,27.69-4.42,12-5.51,21.32-3.28,28.62,1.72,5.47,5,9.15,9.83,10.93a21,21,0,0,0,7.67,1.19c8.35-.11,16.26-3.75,23.52-10.83,7-6.73,12.62-16.13,17-27.93S239.56,516.82,237.49,509.58ZM220,497.46a27.25,27.25,0,0,0-6.83,1l17.65,1.86C228.26,498.51,224.75,497.4,220,497.46Zm17.5,12.12a18,18,0,0,0-.62-1.78c-3.4-.43-6.71-.83-10.06-1.16a7.75,7.75,0,0,1,3.44,5c1.61,5.52.57,13.53-3.2,23.72-4,10.76-9.09,19.17-15.21,25.12s-11.94,8.63-18.36,8.72c-5.61.12-8.73-2-10.23-6.88-1.77-5.58-.73-13.58,3-23.78,3.88-10.51,9-18.93,15.12-24.88,4.8-4.6,9.52-7.24,14.64-8.27-4.8-.59-9.6-1.17-14.43-1.68a42.83,42.83,0,0,0-5.42,4.56c-7,6.74-12.62,16.14-16.89,27.69-4.42,12-5.51,21.32-3.28,28.62,1.72,5.47,5,9.15,9.83,10.93a21,21,0,0,0,7.67,1.19c8.35-.11,16.26-3.75,23.52-10.83,7-6.73,12.62-16.13,17-27.93S239.56,516.82,237.49,509.58ZM220,497.46a27.25,27.25,0,0,0-6.83,1l17.65,1.86C228.26,498.51,224.75,497.4,220,497.46Zm17.5,12.12a18,18,0,0,0-.62-1.78c-3.4-.43-6.71-.83-10.06-1.16a7.75,7.75,0,0,1,3.44,5c1.61,5.52.57,13.53-3.2,23.72-4,10.76-9.09,19.17-15.21,25.12s-11.94,8.63-18.36,8.72c-5.61.12-8.73-2-10.23-6.88-1.77-5.58-.73-13.58,3-23.78,3.88-10.51,9-18.93,15.12-24.88,4.8-4.6,9.52-7.24,14.64-8.27-4.8-.59-9.6-1.17-14.43-1.68a42.83,42.83,0,0,0-5.42,4.56c-7,6.74-12.62,16.14-16.89,27.69-4.42,12-5.51,21.32-3.28,28.62,1.72,5.47,5,9.15,9.83,10.93a21,21,0,0,0,7.67,1.19c8.35-.11,16.26-3.75,23.52-10.83,7-6.73,12.62-16.13,17-27.93S239.56,516.82,237.49,509.58ZM220,497.46a27.25,27.25,0,0,0-6.83,1l17.65,1.86C228.26,498.51,224.75,497.4,220,497.46Zm60.43-8c-1.35,3.42-2.82,6.89-4.25,10.28a27.07,27.07,0,0,1,.95,5.56c2.54.29,5.1.51,7.72.84A45.31,45.31,0,0,0,280.42,489.42Zm-2.17-4c-.1-.22-.23-.36-.33-.58a42,42,0,0,0-18.18-15.47c-7.63-3.55-16.91-5.34-27.48-5.13a96.47,96.47,0,0,0-40.89,9.7,119.62,119.62,0,0,0-28.44,19.22l10.27,1.06a110.62,110.62,0,0,1,21.42-13.52,89.94,89.94,0,0,1,37.7-9,58.48,58.48,0,0,1,21.25,3.2c1,.35,2,.74,3,1.2a35.89,35.89,0,0,1,15.08,12.78,27.92,27.92,0,0,1,3.64,7.91C276.27,493,277.29,489.26,278.25,485.42Zm6.6,27.8-7.44-.84a68,68,0,0,1-4.65,22.46,101.51,101.51,0,0,1-21.41,34.5,109.14,109.14,0,0,1-32.61,24.07,87.53,87.53,0,0,1-37.54,9c-12.65.16-22.9-2.44-30.53-7.72s-12.22-12.36-14.18-21.85-.66-20.94,4.06-33.7a100.83,100.83,0,0,1,21.38-34.43c1.65-1.76,3.39-3.49,5.17-5.11-3.23-.37-6.47-.75-9.63-1.09-.3.34-.72.73-1,1.07a109.07,109.07,0,0,0-22.88,37c-5.21,14.12-6.7,26.8-4.49,37.83,2.4,11.29,8.15,20.16,17.32,26.46a44.78,44.78,0,0,0,10.25,5.34,68.41,68.41,0,0,0,24.62,3.72A96,96,0,0,0,222,600.18a116.62,116.62,0,0,0,34.85-25.71,110.12,110.12,0,0,0,23-37A74.06,74.06,0,0,0,284.85,513.22Zm-47.36-3.64a18,18,0,0,0-.62-1.78c-3.4-.43-6.71-.83-10.06-1.16a7.75,7.75,0,0,1,3.44,5c1.61,5.52.57,13.53-3.2,23.72-4,10.76-9.09,19.17-15.21,25.12s-11.94,8.63-18.36,8.72c-5.61.12-8.73-2-10.23-6.88-1.77-5.58-.73-13.58,3-23.78,3.88-10.51,9-18.93,15.12-24.88,4.8-4.6,9.52-7.24,14.64-8.27-4.8-.59-9.6-1.17-14.43-1.68a42.83,42.83,0,0,0-5.42,4.56c-7,6.74-12.62,16.14-16.89,27.69-4.42,12-5.51,21.32-3.28,28.62,1.72,5.47,5,9.15,9.83,10.93a21,21,0,0,0,7.67,1.19c8.35-.11,16.26-3.75,23.52-10.83,7-6.73,12.62-16.13,17-27.93S239.56,516.82,237.49,509.58ZM220,497.46a27.25,27.25,0,0,0-6.83,1l17.65,1.86C228.26,498.51,224.75,497.4,220,497.46Zm17.5,12.12a18,18,0,0,0-.62-1.78c-3.4-.43-6.71-.83-10.06-1.16a7.75,7.75,0,0,1,3.44,5c1.61,5.52.57,13.53-3.2,23.72-4,10.76-9.09,19.17-15.21,25.12s-11.94,8.63-18.36,8.72c-5.61.12-8.73-2-10.23-6.88-1.77-5.58-.73-13.58,3-23.78,3.88-10.51,9-18.93,15.12-24.88,4.8-4.6,9.52-7.24,14.64-8.27-4.8-.59-9.6-1.17-14.43-1.68a42.83,42.83,0,0,0-5.42,4.56c-7,6.74-12.62,16.14-16.89,27.69-4.42,12-5.51,21.32-3.28,28.62,1.72,5.47,5,9.15,9.83,10.93a21,21,0,0,0,7.67,1.19c8.35-.11,16.26-3.75,23.52-10.83,7-6.73,12.62-16.13,17-27.93S239.56,516.82,237.49,509.58ZM220,497.46a27.25,27.25,0,0,0-6.83,1l17.65,1.86C228.26,498.51,224.75,497.4,220,497.46Zm17.5,12.12a18,18,0,0,0-.62-1.78c-3.4-.43-6.71-.83-10.06-1.16a7.75,7.75,0,0,1,3.44,5c1.61,5.52.57,13.53-3.2,23.72-4,10.76-9.09,19.17-15.21,25.12s-11.94,8.63-18.36,8.72c-5.61.12-8.73-2-10.23-6.88-1.77-5.58-.73-13.58,3-23.78,3.88-10.51,9-18.93,15.12-24.88,4.8-4.6,9.52-7.24,14.64-8.27-4.8-.59-9.6-1.17-14.43-1.68a42.83,42.83,0,0,0-5.42,4.56c-7,6.74-12.62,16.14-16.89,27.69-4.42,12-5.51,21.32-3.28,28.62,1.72,5.47,5,9.15,9.83,10.93a21,21,0,0,0,7.67,1.19c8.35-.11,16.26-3.75,23.52-10.83,7-6.73,12.62-16.13,17-27.93S239.56,516.82,237.49,509.58ZM220,497.46a27.25,27.25,0,0,0-6.83,1l17.65,1.86C228.26,498.51,224.75,497.4,220,497.46Zm17.5,12.12a18,18,0,0,0-.62-1.78c-3.4-.43-6.71-.83-10.06-1.16a7.75,7.75,0,0,1,3.44,5c1.61,5.52.57,13.53-3.2,23.72-4,10.76-9.09,19.17-15.21,25.12s-11.94,8.63-18.36,8.72c-5.61.12-8.73-2-10.23-6.88-1.77-5.58-.73-13.58,3-23.78,3.88-10.51,9-18.93,15.12-24.88,4.8-4.6,9.52-7.24,14.64-8.27-4.8-.59-9.6-1.17-14.43-1.68a42.83,42.83,0,0,0-5.42,4.56c-7,6.74-12.62,16.14-16.89,27.69-4.42,12-5.51,21.32-3.28,28.62,1.72,5.47,5,9.15,9.83,10.93a21,21,0,0,0,7.67,1.19c8.35-.11,16.26-3.75,23.52-10.83,7-6.73,12.62-16.13,17-27.93S239.56,516.82,237.49,509.58ZM220,497.46a27.25,27.25,0,0,0-6.83,1l17.65,1.86C228.26,498.51,224.75,497.4,220,497.46Zm17.5,12.12a18,18,0,0,0-.62-1.78c-3.4-.43-6.71-.83-10.06-1.16a7.75,7.75,0,0,1,3.44,5c1.61,5.52.57,13.53-3.2,23.72-4,10.76-9.09,19.17-15.21,25.12s-11.94,8.63-18.36,8.72c-5.61.12-8.73-2-10.23-6.88-1.77-5.58-.73-13.58,3-23.78,3.88-10.51,9-18.93,15.12-24.88,4.8-4.6,9.52-7.24,14.64-8.27-4.8-.59-9.6-1.17-14.43-1.68a42.83,42.83,0,0,0-5.42,4.56c-7,6.74-12.62,16.14-16.89,27.69-4.42,12-5.51,21.32-3.28,28.62,1.72,5.47,5,9.15,9.83,10.93a21,21,0,0,0,7.67,1.19c8.35-.11,16.26-3.75,23.52-10.83,7-6.73,12.62-16.13,17-27.93S239.56,516.82,237.49,509.58ZM220,497.46a27.25,27.25,0,0,0-6.83,1l17.65,1.86C228.26,498.51,224.75,497.4,220,497.46Zm17.5,12.12a18,18,0,0,0-.62-1.78c-3.4-.43-6.71-.83-10.06-1.16a7.75,7.75,0,0,1,3.44,5c1.61,5.52.57,13.53-3.2,23.72-4,10.76-9.09,19.17-15.21,25.12s-11.94,8.63-18.36,8.72c-5.61.12-8.73-2-10.23-6.88-1.77-5.58-.73-13.58,3-23.78,3.88-10.51,9-18.93,15.12-24.88,4.8-4.6,9.52-7.24,14.64-8.27-4.8-.59-9.6-1.17-14.43-1.68a42.83,42.83,0,0,0-5.42,4.56c-7,6.74-12.62,16.14-16.89,27.69-4.42,12-5.51,21.32-3.28,28.62,1.72,5.47,5,9.15,9.83,10.93a21,21,0,0,0,7.67,1.19c8.35-.11,16.26-3.75,23.52-10.83,7-6.73,12.62-16.13,17-27.93S239.56,516.82,237.49,509.58ZM220,497.46a27.25,27.25,0,0,0-6.83,1l17.65,1.86C228.26,498.51,224.75,497.4,220,497.46Zm17.5,12.12a18,18,0,0,0-.62-1.78c-3.4-.43-6.71-.83-10.06-1.16a7.75,7.75,0,0,1,3.44,5c1.61,5.52.57,13.53-3.2,23.72-4,10.76-9.09,19.17-15.21,25.12s-11.94,8.63-18.36,8.72c-5.61.12-8.73-2-10.23-6.88-1.77-5.58-.73-13.58,3-23.78,3.88-10.51,9-18.93,15.12-24.88,4.8-4.6,9.52-7.24,14.64-8.27-4.8-.59-9.6-1.17-14.43-1.68a42.83,42.83,0,0,0-5.42,4.56c-7,6.74-12.62,16.14-16.89,27.69-4.42,12-5.51,21.32-3.28,28.62,1.72,5.47,5,9.15,9.83,10.93a21,21,0,0,0,7.67,1.19c8.35-.11,16.26-3.75,23.52-10.83,7-6.73,12.62-16.13,17-27.93S239.56,516.82,237.49,509.58ZM220,497.46a27.25,27.25,0,0,0-6.83,1l17.65,1.86C228.26,498.51,224.75,497.4,220,497.46Zm17.5,12.12a18,18,0,0,0-.62-1.78c-3.4-.43-6.71-.83-10.06-1.16a7.75,7.75,0,0,1,3.44,5c1.61,5.52.57,13.53-3.2,23.72-4,10.76-9.09,19.17-15.21,25.12s-11.94,8.63-18.36,8.72c-5.61.12-8.73-2-10.23-6.88-1.77-5.58-.73-13.58,3-23.78,3.88-10.51,9-18.93,15.12-24.88,4.8-4.6,9.52-7.24,14.64-8.27-4.8-.59-9.6-1.17-14.43-1.68a42.83,42.83,0,0,0-5.42,4.56c-7,6.74-12.62,16.14-16.89,27.69-4.42,12-5.51,21.32-3.28,28.62,1.72,5.47,5,9.15,9.83,10.93a21,21,0,0,0,7.67,1.19c8.35-.11,16.26-3.75,23.52-10.83,7-6.73,12.62-16.13,17-27.93S239.56,516.82,237.49,509.58ZM220,497.46a27.25,27.25,0,0,0-6.83,1l17.65,1.86C228.26,498.51,224.75,497.4,220,497.46Zm17.5,12.12a18,18,0,0,0-.62-1.78c-3.4-.43-6.71-.83-10.06-1.16a7.75,7.75,0,0,1,3.44,5c1.61,5.52.57,13.53-3.2,23.72-4,10.76-9.09,19.17-15.21,25.12s-11.94,8.63-18.36,8.72c-5.61.12-8.73-2-10.23-6.88-1.77-5.58-.73-13.58,3-23.78,3.88-10.51,9-18.93,15.12-24.88,4.8-4.6,9.52-7.24,14.64-8.27-4.8-.59-9.6-1.17-14.43-1.68a42.83,42.83,0,0,0-5.42,4.56c-7,6.74-12.62,16.14-16.89,27.69-4.42,12-5.51,21.32-3.28,28.62,1.72,5.47,5,9.15,9.83,10.93a21,21,0,0,0,7.67,1.19c8.35-.11,16.26-3.75,23.52-10.83,7-6.73,12.62-16.13,17-27.93S239.56,516.82,237.49,509.58ZM220,497.46a27.25,27.25,0,0,0-6.83,1l17.65,1.86C228.26,498.51,224.75,497.4,220,497.46Zm17.5,12.12a18,18,0,0,0-.62-1.78c-3.4-.43-6.71-.83-10.06-1.16a7.75,7.75,0,0,1,3.44,5c1.61,5.52.57,13.53-3.2,23.72-4,10.76-9.09,19.17-15.21,25.12s-11.94,8.63-18.36,8.72c-5.61.12-8.73-2-10.23-6.88-1.77-5.58-.73-13.58,3-23.78,3.88-10.51,9-18.93,15.12-24.88,4.8-4.6,9.52-7.24,14.64-8.27-4.8-.59-9.6-1.17-14.43-1.68a42.83,42.83,0,0,0-5.42,4.56c-7,6.74-12.62,16.14-16.89,27.69-4.42,12-5.51,21.32-3.28,28.62,1.72,5.47,5,9.15,9.83,10.93a21,21,0,0,0,7.67,1.19c8.35-.11,16.26-3.75,23.52-10.83,7-6.73,12.62-16.13,17-27.93S239.56,516.82,237.49,509.58ZM220,497.46a27.25,27.25,0,0,0-6.83,1l17.65,1.86C228.26,498.51,224.75,497.4,220,497.46Zm17.5,12.12a18,18,0,0,0-.62-1.78c-3.4-.43-6.71-.83-10.06-1.16a7.75,7.75,0,0,1,3.44,5c1.61,5.52.57,13.53-3.2,23.72-4,10.76-9.09,19.17-15.21,25.12s-11.94,8.63-18.36,8.72c-5.61.12-8.73-2-10.23-6.88-1.77-5.58-.73-13.58,3-23.78,3.88-10.51,9-18.93,15.12-24.88,4.8-4.6,9.52-7.24,14.64-8.27-4.8-.59-9.6-1.17-14.43-1.68a42.83,42.83,0,0,0-5.42,4.56c-7,6.74-12.62,16.14-16.89,27.69-4.42,12-5.51,21.32-3.28,28.62,1.72,5.47,5,9.15,9.83,10.93a21,21,0,0,0,7.67,1.19c8.35-.11,16.26-3.75,23.52-10.83,7-6.73,12.62-16.13,17-27.93S239.56,516.82,237.49,509.58ZM220,497.46a27.25,27.25,0,0,0-6.83,1l17.65,1.86C228.26,498.51,224.75,497.4,220,497.46Zm17.5,12.12a18,18,0,0,0-.62-1.78c-3.4-.43-6.71-.83-10.06-1.16a7.75,7.75,0,0,1,3.44,5c1.61,5.52.57,13.53-3.2,23.72-4,10.76-9.09,19.17-15.21,25.12s-11.94,8.63-18.36,8.72c-5.61.12-8.73-2-10.23-6.88-1.77-5.58-.73-13.58,3-23.78,3.88-10.51,9-18.93,15.12-24.88,4.8-4.6,9.52-7.24,14.64-8.27-4.8-.59-9.6-1.17-14.43-1.68a42.83,42.83,0,0,0-5.42,4.56c-7,6.74-12.62,16.14-16.89,27.69-4.42,12-5.51,21.32-3.28,28.62,1.72,5.47,5,9.15,9.83,10.93a21,21,0,0,0,7.67,1.19c8.35-.11,16.26-3.75,23.52-10.83,7-6.73,12.62-16.13,17-27.93S239.56,516.82,237.49,509.58ZM220,497.46a27.25,27.25,0,0,0-6.83,1l17.65,1.86C228.26,498.51,224.75,497.4,220,497.46Zm17.5,12.12a18,18,0,0,0-.62-1.78c-3.4-.43-6.71-.83-10.06-1.16a7.75,7.75,0,0,1,3.44,5c1.61,5.52.57,13.53-3.2,23.72-4,10.76-9.09,19.17-15.21,25.12s-11.94,8.63-18.36,8.72c-5.61.12-8.73-2-10.23-6.88-1.77-5.58-.73-13.58,3-23.78,3.88-10.51,9-18.93,15.12-24.88,4.8-4.6,9.52-7.24,14.64-8.27-4.8-.59-9.6-1.17-14.43-1.68a42.83,42.83,0,0,0-5.42,4.56c-7,6.74-12.62,16.14-16.89,27.69-4.42,12-5.51,21.32-3.28,28.62,1.72,5.47,5,9.15,9.83,10.93a21,21,0,0,0,7.67,1.19c8.35-.11,16.26-3.75,23.52-10.83,7-6.73,12.62-16.13,17-27.93S239.56,516.82,237.49,509.58ZM220,497.46a27.25,27.25,0,0,0-6.83,1l17.65,1.86C228.26,498.51,224.75,497.4,220,497.46Zm17.5,12.12a18,18,0,0,0-.62-1.78c-3.4-.43-6.71-.83-10.06-1.16a7.75,7.75,0,0,1,3.44,5c1.61,5.52.57,13.53-3.2,23.72-4,10.76-9.09,19.17-15.21,25.12s-11.94,8.63-18.36,8.72c-5.61.12-8.73-2-10.23-6.88-1.77-5.58-.73-13.58,3-23.78,3.88-10.51,9-18.93,15.12-24.88,4.8-4.6,9.52-7.24,14.64-8.27-4.8-.59-9.6-1.17-14.43-1.68a42.83,42.83,0,0,0-5.42,4.56c-7,6.74-12.62,16.14-16.89,27.69-4.42,12-5.51,21.32-3.28,28.62,1.72,5.47,5,9.15,9.83,10.93a21,21,0,0,0,7.67,1.19c8.35-.11,16.26-3.75,23.52-10.83,7-6.73,12.62-16.13,17-27.93S239.56,516.82,237.49,509.58ZM220,497.46a27.25,27.25,0,0,0-6.83,1l17.65,1.86C228.26,498.51,224.75,497.4,220,497.46Zm17.5,12.12a18,18,0,0,0-.62-1.78c-3.4-.43-6.71-.83-10.06-1.16a7.75,7.75,0,0,1,3.44,5c1.61,5.52.57,13.53-3.2,23.72-4,10.76-9.09,19.17-15.21,25.12s-11.94,8.63-18.36,8.72c-5.61.12-8.73-2-10.23-6.88-1.77-5.58-.73-13.58,3-23.78,3.88-10.51,9-18.93,15.12-24.88,4.8-4.6,9.52-7.24,14.64-8.27-4.8-.59-9.6-1.17-14.43-1.68a42.83,42.83,0,0,0-5.42,4.56c-7,6.74-12.62,16.14-16.89,27.69-4.42,12-5.51,21.32-3.28,28.62,1.72,5.47,5,9.15,9.83,10.93a21,21,0,0,0,7.67,1.19c8.35-.11,16.26-3.75,23.52-10.83,7-6.73,12.62-16.13,17-27.93S239.56,516.82,237.49,509.58ZM220,497.46a27.25,27.25,0,0,0-6.83,1l17.65,1.86C228.26,498.51,224.75,497.4,220,497.46Zm17.5,12.12a18,18,0,0,0-.62-1.78c-3.4-.43-6.71-.83-10.06-1.16a7.75,7.75,0,0,1,3.44,5c1.61,5.52.57,13.53-3.2,23.72-4,10.76-9.09,19.17-15.21,25.12s-11.94,8.63-18.36,8.72c-5.61.12-8.73-2-10.23-6.88-1.77-5.58-.73-13.58,3-23.78,3.88-10.51,9-18.93,15.12-24.88,4.8-4.6,9.52-7.24,14.64-8.27-4.8-.59-9.6-1.17-14.43-1.68a42.83,42.83,0,0,0-5.42,4.56c-7,6.74-12.62,16.14-16.89,27.69-4.42,12-5.51,21.32-3.28,28.62,1.72,5.47,5,9.15,9.83,10.93a21,21,0,0,0,7.67,1.19c8.35-.11,16.26-3.75,23.52-10.83,7-6.73,12.62-16.13,17-27.93S239.56,516.82,237.49,509.58ZM220,497.46a27.25,27.25,0,0,0-6.83,1l17.65,1.86C228.26,498.51,224.75,497.4,220,497.46Zm17.5,12.12a18,18,0,0,0-.62-1.78c-3.4-.43-6.71-.83-10.06-1.16a7.75,7.75,0,0,1,3.44,5c1.61,5.52.57,13.53-3.2,23.72-4,10.76-9.09,19.17-15.21,25.12s-11.94,8.63-18.36,8.72c-5.61.12-8.73-2-10.23-6.88-1.77-5.58-.73-13.58,3-23.78,3.88-10.51,9-18.93,15.12-24.88,4.8-4.6,9.52-7.24,14.64-8.27-4.8-.59-9.6-1.17-14.43-1.68a42.83,42.83,0,0,0-5.42,4.56c-7,6.74-12.62,16.14-16.89,27.69-4.42,12-5.51,21.32-3.28,28.62,1.72,5.47,5,9.15,9.83,10.93a21,21,0,0,0,7.67,1.19c8.35-.11,16.26-3.75,23.52-10.83,7-6.73,12.62-16.13,17-27.93S239.56,516.82,237.49,509.58ZM220,497.46a27.25,27.25,0,0,0-6.83,1l17.65,1.86C228.26,498.51,224.75,497.4,220,497.46Zm17.5,12.12a18,18,0,0,0-.62-1.78c-3.4-.43-6.71-.83-10.06-1.16a7.75,7.75,0,0,1,3.44,5c1.61,5.52.57,13.53-3.2,23.72-4,10.76-9.09,19.17-15.21,25.12s-11.94,8.63-18.36,8.72c-5.61.12-8.73-2-10.23-6.88-1.77-5.58-.73-13.58,3-23.78,3.88-10.51,9-18.93,15.12-24.88,4.8-4.6,9.52-7.24,14.64-8.27-4.8-.59-9.6-1.17-14.43-1.68a42.83,42.83,0,0,0-5.42,4.56c-7,6.74-12.62,16.14-16.89,27.69-4.42,12-5.51,21.32-3.28,28.62,1.72,5.47,5,9.15,9.83,10.93a21,21,0,0,0,7.67,1.19c8.35-.11,16.26-3.75,23.52-10.83,7-6.73,12.62-16.13,17-27.93S239.56,516.82,237.49,509.58ZM220,497.46a27.25,27.25,0,0,0-6.83,1l17.65,1.86C228.26,498.51,224.75,497.4,220,497.46Zm17.5,12.12a18,18,0,0,0-.62-1.78c-3.4-.43-6.71-.83-10.06-1.16a7.75,7.75,0,0,1,3.44,5c1.61,5.52.57,13.53-3.2,23.72-4,10.76-9.09,19.17-15.21,25.12s-11.94,8.63-18.36,8.72c-5.61.12-8.73-2-10.23-6.88-1.77-5.58-.73-13.58,3-23.78,3.88-10.51,9-18.93,15.12-24.88,4.8-4.6,9.52-7.24,14.64-8.27-4.8-.59-9.6-1.17-14.43-1.68a42.83,42.83,0,0,0-5.42,4.56c-7,6.74-12.62,16.14-16.89,27.69-4.42,12-5.51,21.32-3.28,28.62,1.72,5.47,5,9.15,9.83,10.93a21,21,0,0,0,7.67,1.19c8.35-.11,16.26-3.75,23.52-10.83,7-6.73,12.62-16.13,17-27.93S239.56,516.82,237.49,509.58ZM220,497.46a27.25,27.25,0,0,0-6.83,1l17.65,1.86C228.26,498.51,224.75,497.4,220,497.46Zm17.5,12.12a18,18,0,0,0-.62-1.78c-3.4-.43-6.71-.83-10.06-1.16a7.75,7.75,0,0,1,3.44,5c1.61,5.52.57,13.53-3.2,23.72-4,10.76-9.09,19.17-15.21,25.12s-11.94,8.63-18.36,8.72c-5.61.12-8.73-2-10.23-6.88-1.77-5.58-.73-13.58,3-23.78,3.88-10.51,9-18.93,15.12-24.88,4.8-4.6,9.52-7.24,14.64-8.27-4.8-.59-9.6-1.17-14.43-1.68a42.83,42.83,0,0,0-5.42,4.56c-7,6.74-12.62,16.14-16.89,27.69-4.42,12-5.51,21.32-3.28,28.62,1.72,5.47,5,9.15,9.83,10.93a21,21,0,0,0,7.67,1.19c8.35-.11,16.26-3.75,23.52-10.83,7-6.73,12.62-16.13,17-27.93S239.56,516.82,237.49,509.58ZM220,497.46a27.25,27.25,0,0,0-6.83,1l17.65,1.86C228.26,498.51,224.75,497.4,220,497.46Zm17.5,12.12a18,18,0,0,0-.62-1.78c-3.4-.43-6.71-.83-10.06-1.16a7.75,7.75,0,0,1,3.44,5c1.61,5.52.57,13.53-3.2,23.72-4,10.76-9.09,19.17-15.21,25.12s-11.94,8.63-18.36,8.72c-5.61.12-8.73-2-10.23-6.88-1.77-5.58-.73-13.58,3-23.78,3.88-10.51,9-18.93,15.12-24.88,4.8-4.6,9.52-7.24,14.64-8.27-4.8-.59-9.6-1.17-14.43-1.68a42.83,42.83,0,0,0-5.42,4.56c-7,6.74-12.62,16.14-16.89,27.69-4.42,12-5.51,21.32-3.28,28.62,1.72,5.47,5,9.15,9.83,10.93a21,21,0,0,0,7.67,1.19c8.35-.11,16.26-3.75,23.52-10.83,7-6.73,12.62-16.13,17-27.93S239.56,516.82,237.49,509.58ZM220,497.46a27.25,27.25,0,0,0-6.83,1l17.65,1.86C228.26,498.51,224.75,497.4,220,497.46Z"/><path class="cls-1" d="M333.35,518.73l-6.24,12.93,10.34-5.76a48.35,48.35,0,0,1,12.64-5.09,1.5,1.5,0,0,0,.52-.17C344.84,520,339.07,519.29,333.35,518.73Zm0,0-6.24,12.93,10.34-5.76a48.35,48.35,0,0,1,12.64-5.09,1.5,1.5,0,0,0,.52-.17C344.84,520,339.07,519.29,333.35,518.73Zm0,0-6.24,12.93,10.34-5.76a48.35,48.35,0,0,1,12.64-5.09,1.5,1.5,0,0,0,.52-.17C344.84,520,339.07,519.29,333.35,518.73Zm0,0-6.24,12.93,10.34-5.76a48.35,48.35,0,0,1,12.64-5.09,1.5,1.5,0,0,0,.52-.17C344.84,520,339.07,519.29,333.35,518.73Zm0,0-6.24,12.93,10.34-5.76a48.35,48.35,0,0,1,12.64-5.09,1.5,1.5,0,0,0,.52-.17C344.84,520,339.07,519.29,333.35,518.73Zm28.49-7a61.8,61.8,0,0,0-11.74,1.41c11.81,1.36,23.57,2.6,35.3,3.93C379.87,513.3,372.18,511.64,361.84,511.74ZM396.5,535a25.86,25.86,0,0,0-3.05-9.52c-3.59-.41-7.26-.86-10.87-1.19a16.35,16.35,0,0,1,6.47,11.6,38.68,38.68,0,0,1-2.58,17.84,67.64,67.64,0,0,1-17.42,26.67,74.92,74.92,0,0,1-27,15.92,112.51,112.51,0,0,1-34.45,5.6,109.61,109.61,0,0,1-19.23-1.54,79.35,79.35,0,0,1-14.49-4L288,573.12a65.09,65.09,0,0,0,12,3.44A76.92,76.92,0,0,0,316.36,578c8.59,0,15.57-1.64,20.89-4.69a25,25,0,0,0,11.19-13c2.55-6.91.55-11.11-1.6-13.45-2.84-3.16-7.21-4.68-13.06-4.65-8,.15-16.06,2.73-24.12,7.78l-15.25-6.36,12.94-27.88c-2.62-.32-5.26-.57-7.88-.9l-15.18,32.7,26.15,10.94,1.69-1.11c7.3-5,14.64-7.54,21.79-7.64,3.58,0,6,.68,7.4,2.19.39.42,1.57,1.67.06,5.77a17.08,17.08,0,0,1-7.93,9.11c-4.08,2.41-9.91,3.63-17.17,3.78a82.06,82.06,0,0,1-14.9-1.4A56.2,56.2,0,0,1,288.09,565l-3-1.48L263,599.9l3.93,1.72c1.65.7,3.26,1.3,4.94,1.92A85.37,85.37,0,0,0,287,607.68a102.81,102.81,0,0,0,20.65,1.61,116.62,116.62,0,0,0,36.77-5.93,81.38,81.38,0,0,0,29.71-17.48c8.57-7.87,15-17.82,19.34-29.62C396.21,548.8,397.31,541.63,396.5,535Zm-74.2-69-19.58,42.12c2.65.24,5.26.57,7.91.82l16.46-35.42,78.84-1.07-10.47,21.67-50.59.65-8.21,17c2.64.24,5.26.57,7.9.82l5-10.37,50.59-.65L418,464.79Zm11.05,52.79-6.24,12.93,10.34-5.76a48.35,48.35,0,0,1,12.64-5.09,1.5,1.5,0,0,0,.52-.17C344.84,520,339.07,519.29,333.35,518.73Zm0,0-6.24,12.93,10.34-5.76a48.35,48.35,0,0,1,12.64-5.09,1.5,1.5,0,0,0,.52-.17C344.84,520,339.07,519.29,333.35,518.73Zm0,0-6.24,12.93,10.34-5.76a48.35,48.35,0,0,1,12.64-5.09,1.5,1.5,0,0,0,.52-.17C344.84,520,339.07,519.29,333.35,518.73Zm0,0-6.24,12.93,10.34-5.76a48.35,48.35,0,0,1,12.64-5.09,1.5,1.5,0,0,0,.52-.17C344.84,520,339.07,519.29,333.35,518.73Z"/></svg>